<?xml  version="1.0" encoding="UTF-8"?>
<!DOCTYPE svg PUBLIC "-//W3C//DTD SVG 1.0//EN" "http://www.w3.org/TR/2001/REC-SVG-20010904/DTD/svg10.dtd" >
<svg xmlns="http://www.w3.org/2000/svg" >
<metadata>
<version>1.0</version>
<id><![CDATA[Stone Sans ITC W01 Bold It]]></id>
<vendor>Monotype Imaging Inc.</vendor>
<credits>
<name>Fonts.com WebFonts</name>
<URL>http://webfonts.fonts.com</URL>
<role>Home of the Web fonts</role>
</credits>
<license>
<URL>http://webfonts.fonts.com/Legal</URL>
</license>
<copyright><![CDATA[Copyright 2002, 2007 International Typeface Corporation. All rights reserved.]]></copyright>
<trademark><![CDATA[ITC and Stone are trademarks of International Typeface Corporation Registered in U.S. Patent and Trademark Office and may be registered in certain other jurisdictions.]]></trademark>
<licensee>
<name></name>
</licensee>
</metadata>
<defs >
<font horiz-adv-x="569" id="a7720d38-7c1d-45a6-b846-3755b699d7e2">
<font-face font-family="" panose-1="2 0 8 3 6 0 0 9 0 4" ascent="958" descent="-263" units-per-em="1000" alphabetic="0">
</font-face>
<missing-glyph horiz-adv-x="0" />

<glyph unicode="&#xA;" />
<glyph unicode="&#xD;" horiz-adv-x="0" />
<glyph unicode=" " horiz-adv-x="262" />
<glyph unicode="!" horiz-adv-x="413" d="M254 227H147L197 734H395L254 227ZM260 86Q260 66 253 49T233 20T203 0T167 -8Q133 -8 110 14T87 71Q87 90 94 107T114 137T143 157T178 165Q213 165 236 142T260 86Z"  />
<glyph unicode="&quot;" horiz-adv-x="508" d="M300 657Q300 649 298 639T293 617T287 596T281 579L216 401Q199 354 184 354Q175 354 172 359T168 386Q168 388 168 415T170 475T172 542T174 589Q175 609 177 629T186 664T208 690T249 700Q269 700 284 690T300 657ZM470 657Q470 649 468 639T463 617T457 596T451 579L386 401Q369 354 354 354Q345 354 342 359T338 386Q338 388 338 415T340 475T342 542T344 589Q345 609 347 629T356 664T378 690T419 700Q439 700 454 690T470 657Z"  />
<glyph unicode="#" horiz-adv-x="621" d="M604 406H497L462 302H569L531 193H424L357 0H279L346 193H224L158 0H78L145 193H36L73 302H183L219 406H109L146 515H256L319 700H398L335 515H457L520 700H598L535 515H642L604 406ZM297 406L261 302H383L419 406H297Z"  />
<glyph unicode="$" horiz-adv-x="621" d="M518 559Q508 566 494 571T464 580L414 419Q442 391 467 364T512 308T542 252T553 196Q553 144 530 109T468 53T383 22T288 12L259 -82H190L222 22Q156 38 100 74L152 183Q175 165 203 153T257 134L312 312Q289 334 263 359T215 412T179 470T164 534Q164 572 182 603T231 657T304 692T394 704Q404 704 413 704T433 702L455 773H524L498 689Q535 678 569 659L518 559ZM397 585Q365 580 352 564T338 525Q338 514 344 502T363 475L397 585ZM325 127Q357 132 370 152T384 206Q384 220 379 231T364 256L325 127Z"  />
<glyph unicode="%" horiz-adv-x="960" d="M938 245Q938 193 921 148T873 68T803 13T716 -7Q640 -7 597 43T553 181Q553 246 579 299T651 385Q678 405 710 415T779 426Q852 426 895 377T938 245ZM313 0H223L681 700H772L313 0ZM443 525Q443 473 426 428T378 348T308 293T222 273Q146 273 103 323T59 461Q59 526 86 579T158 665Q185 685 217 695T285 706Q358 706 400 657T443 525ZM798 256Q798 297 789 319T763 341Q750 341 737 325T714 284T698 227T692 163Q692 127 701 103T726 79Q740 79 753 94T776 133T792 190T798 256ZM304 537Q304 620 269 620Q255 620 243 605T220 564T203 506T197 439Q197 401 206 380T233 359Q247 359 260 373T282 412T298 469T304 537Z"  />
<glyph unicode="&amp;" horiz-adv-x="734" d="M694 417H622Q632 394 636 373T641 325Q641 280 627 240T580 152L641 76L517 -11L468 53Q442 35 420 23T377 3T332 -8T281 -12Q226 -12 181 3T102 46T51 112T33 198Q33 299 109 362Q126 376 146 387T190 409Q161 449 150 477T139 537Q139 574 154 606T197 662T260 698T340 712Q382 712 417 701T485 666L423 567Q403 578 390 582T361 587Q333 587 315 573T296 538Q296 511 336 458L502 236Q516 270 522 294T529 347Q529 367 525 382T509 417H414L467 503H748L694 417ZM256 318Q237 302 225 290T205 266T195 242T192 215Q192 192 201 173T226 141T264 119T313 111Q335 111 355 116T398 135L256 318Z"  />
<glyph unicode="&apos;" horiz-adv-x="301" d="M292 657Q292 649 290 639T285 617T279 596T273 579L208 401Q191 354 176 354Q167 354 164 359T160 386Q160 388 160 415T162 475T164 542T166 589Q167 609 169 629T178 664T200 690T241 700Q261 700 276 690T292 657Z"  />
<glyph unicode="(" horiz-adv-x="451" d="M485 682Q429 633 384 571T306 440T257 298T239 154Q239 69 262 -1T335 -135L253 -198Q212 -157 183 -116T134 -31T106 60T97 162Q97 290 144 404T279 613Q314 649 353 681T438 741L485 682H485Z"  />
<glyph unicode=")" horiz-adv-x="451" d="M361 380Q361 292 338 209T271 52T164 -86T19 -198L-27 -140Q28 -91 73 -29T151 102T201 245T219 389Q219 474 196 544T123 677L204 741Q245 700 274 659T323 573T352 482T361 380Z"  />
<glyph unicode="*" horiz-adv-x="621" d="M419 489L520 379L424 322L356 451L270 322L185 381L302 489L171 526L210 619L340 557L335 700H444L412 557L548 615L576 524L419 489Z"  />
<glyph unicode="+" horiz-adv-x="621" d="M369 202V0H267V202H64V304H267V506H369V304H571V202H369Z"  />
<glyph unicode="&#x2c;" horiz-adv-x="301" d="M209 79Q209 53 198 27T164 -20L12 -169L-48 -122L50 11Q47 26 43 42T39 81Q39 112 64 133T127 155Q161 155 182 139Q209 118 209 79Z"  />
<glyph unicode="-" horiz-adv-x="376" d="M338 204H38L56 304H356L338 204Z"  />
<glyph unicode="." horiz-adv-x="301" d="M205 86Q205 66 198 49T178 20T148 0T112 -8Q78 -8 56 14T33 71Q33 90 40 107T59 137T88 157T123 165Q158 165 181 142T205 86Z"  />
<glyph unicode="/" horiz-adv-x="462" d="M73 -107H-29L379 732H483L73 -107Z"  />
<glyph unicode="0" horiz-adv-x="621" d="M613 419Q613 324 579 234T482 78Q395 -12 281 -12Q227 -12 184 9T111 69T64 165T48 293Q48 403 88 493T198 641Q239 675 286 693T388 712Q429 712 466 699T530 660Q569 622 591 559T613 419ZM429 434Q429 581 363 581Q319 581 279 493Q258 445 245 383T231 265Q231 200 249 160T296 119Q346 119 385 210Q395 233 403 260T417 317T426 377T429 434Z"  />
<glyph unicode="1" horiz-adv-x="621" d="M371 0H189L296 577L161 521V625L347 700H504L371 0Z"  />
<glyph unicode="2" horiz-adv-x="621" d="M608 542Q608 507 595 472T550 398T466 312T338 211L246 144H538L512 0H7L25 98Q94 155 138 192T213 257T265 304T309 348Q362 403 383 440T405 513Q405 543 387 561T336 580Q272 580 186 512L145 615Q209 665 272 688T401 712Q447 712 485 700T550 665T593 611T608 542Z"  />
<glyph unicode="3" horiz-adv-x="621" d="M555 556Q555 496 508 453T361 377Q530 344 530 211Q530 162 508 121T444 51T346 5T221 -12Q164 -12 118 -2T33 31L92 128Q121 111 146 104T202 96Q256 96 292 126T328 205Q328 258 283 289T162 321Q160 321 156 321T147 320L164 411Q212 413 240 418T294 436Q323 450 339 474T355 529Q355 562 333 582T273 603Q230 603 181 574L157 667Q211 690 258 701T357 712Q402 712 438 701T501 670T541 620T555 556Z"  />
<glyph unicode="4" horiz-adv-x="621" d="M580 156H487L459 0H288L316 156H12L26 253L428 700H588L508 272H601L580 156ZM411 547Q383 513 357 480T303 413T245 344T179 272H347L411 547Z"  />
<glyph unicode="5" horiz-adv-x="621" d="M567 569H360L318 461Q365 445 394 430T450 392Q489 359 512 316T535 228Q535 177 515 133T457 57T365 7T242 -12Q212 -12 185 -9T132 3T80 25T23 58L92 166Q142 138 175 129T241 119Q292 119 322 147Q352 174 352 217Q352 254 323 286T240 342Q219 352 195 357T137 371L265 700H619L567 569Z"  />
<glyph unicode="6" horiz-adv-x="621" d="M580 595Q538 590 496 575T418 537T351 483T301 418Q329 425 345 427T381 429Q431 429 469 414T534 371T574 309T588 234Q588 183 566 137T505 57Q466 22 415 5T304 -12Q247 -12 199 6T116 59T62 140T42 246Q42 382 168 513Q251 598 362 649T598 712L580 595ZM400 225Q400 281 378 311T314 341Q269 341 247 303T225 199Q225 142 247 113T305 83Q349 83 374 121T400 225Z"  />
<glyph unicode="7" horiz-adv-x="621" d="M629 623L247 -10L98 36Q133 89 178 160T268 305T356 448T426 569H134L159 700H643L629 623Z"  />
<glyph unicode="8" horiz-adv-x="621" d="M602 554Q602 518 584 487T526 425Q520 420 515 416T503 408T484 397T456 380Q518 337 546 295T574 202Q574 154 554 115T496 48T406 4T290 -12Q235 -12 188 2T106 42T51 101T31 177Q31 255 102 318Q141 352 200 382Q177 407 162 429Q142 457 135 479T128 531Q128 570 147 603T200 661T280 698T382 712Q430 712 470 700T539 667T585 617T602 554ZM435 549Q435 584 418 607T372 631Q357 631 344 624T320 603T304 573T298 537Q298 509 310 487T351 441Q388 460 410 483Q435 511 435 549ZM382 187Q382 231 364 262T306 319Q286 305 271 292T245 264Q221 230 221 180Q221 135 242 107T298 79Q335 79 358 109T382 187Z"  />
<glyph unicode="9" horiz-adv-x="621" d="M609 435Q609 371 580 311T494 190Q414 105 304 53T68 -12L81 105Q124 110 165 125T242 164T307 217T356 282Q328 275 312 273T276 271Q232 271 194 286T126 329T79 394T62 477Q62 522 81 565T136 641Q174 676 225 694T338 712Q401 712 451 692T536 636T590 548T609 435ZM425 476Q425 497 422 521T409 567T383 602T339 616Q297 616 272 575Q250 539 250 485Q250 464 254 442T268 401T296 371T340 359Q381 359 403 389T425 476Z"  />
<glyph unicode=":" horiz-adv-x="301" d="M265 405Q265 385 258 368T238 338T208 318T172 310Q138 310 116 333T93 390Q93 409 100 426T119 455T148 475T183 483Q218 483 241 461T265 405ZM204 77Q204 57 197 40T177 11T147 -9T111 -17Q77 -17 55 5T32 62Q32 81 39 98T58 128T87 148T122 156Q157 156 180 133T204 77Z"  />
<glyph unicode=";" horiz-adv-x="301" d="M271 405Q271 385 264 368T244 338T214 318T178 310Q144 310 122 333T99 390Q99 409 106 426T125 455T154 475T189 483Q224 483 247 461T271 405ZM209 79Q209 53 198 27T164 -20L12 -169L-48 -122L50 11Q47 26 43 42T39 81Q39 112 64 133T127 155Q161 155 182 139Q209 118 209 79Z"  />
<glyph unicode="&lt;" horiz-adv-x="621" d="M98 196V309L550 547V434L210 252L550 73V-43L98 196Z"  />
<glyph unicode="=" horiz-adv-x="621" d="M76 289V395H583V289H76ZM76 95V200H583V95H76Z"  />
<glyph unicode="&gt;" horiz-adv-x="621" d="M106 -43V70L446 252L106 431V547L558 308V195L106 -43Z"  />
<glyph unicode="?" horiz-adv-x="508" d="M529 601Q529 573 520 549T491 498Q484 489 471 475T426 428Q361 360 328 314T285 227H151Q151 246 153 260T163 292T185 332T226 392Q271 456 290 498T310 570Q310 593 298 607T266 622Q247 622 223 609T159 561L114 639Q220 735 348 735Q389 735 422 726T479 698T516 656T529 601ZM285 86Q285 66 278 49T257 20T227 0T191 -8Q157 -8 135 14T112 71Q112 90 119 107T138 137T167 157T202 165Q237 165 261 142T285 86Z"  />
<glyph unicode="@" horiz-adv-x="769" d="M761 404Q761 356 747 313T708 236T652 182T586 162Q558 162 534 177T500 213Q473 176 441 164T367 152Q336 152 309 165T262 200T231 252T219 316Q219 357 234 395T274 462T333 508T403 526Q433 526 458 518T499 494L503 516H615L584 328Q581 313 580 305T578 292T577 285T576 279Q576 260 592 260Q603 260 614 273T636 308T652 354T658 405Q658 451 642 490T596 557T525 602T433 619Q373 619 324 597T239 537T184 448T164 338Q164 277 185 230T243 149T330 99T438 81Q459 81 477 82T513 85T552 92T600 103L626 3Q584 -7 528 -12T415 -18Q338 -18 272 8T156 81T78 194T50 339Q50 418 79 487T159 607T278 687T426 716Q498 716 559 693T665 628T735 529T761 404ZM473 347Q473 368 458 383T421 399Q408 399 396 393T375 376T360 351T354 321Q354 300 368 286T403 272Q416 272 429 278T451 294T467 318T473 347Z"  />
<glyph unicode="A" horiz-adv-x="640" d="M406 0L389 167H203L112 0H-47L341 700H484L592 0H406ZM379 279Q375 312 373 341T368 399T365 458T363 523Q348 484 334 451T308 389T282 333T256 279H379Z"  />
<glyph unicode="B" horiz-adv-x="640" d="M622 552Q622 426 461 378Q525 366 564 324Q605 280 605 218Q605 160 570 110T472 32Q452 23 431 17T384 8T325 2T250 0H37L167 700H388Q430 700 456 699T501 695T532 686T559 671Q622 629 622 552ZM449 525Q449 574 418 588Q401 596 364 596H336L303 417H326Q385 417 417 445T449 525ZM417 228Q417 276 388 300Q377 308 363 311T317 314H284L245 103H266Q307 103 331 110T378 137Q396 153 406 176T417 228Z"  />
<glyph unicode="C" horiz-adv-x="583" d="M577 548Q544 559 519 563T465 568Q364 568 306 507Q277 475 261 432T244 341Q244 295 258 257T297 191T357 148T434 132Q454 132 473 134T515 144L545 14Q503 0 466 -6T388 -12Q319 -12 261 9T158 68Q106 113 77 178T48 323Q48 405 78 476T163 600T290 682T447 712Q501 712 547 699T638 656L577 548Z"  />
<glyph unicode="D" horiz-adv-x="716" d="M705 406Q705 292 651 201T499 56Q470 40 442 30T383 13T314 3T231 0H37L167 700H363Q411 700 447 697T511 688T561 670T603 643Q653 604 679 543T705 406ZM511 399Q511 497 465 543Q427 581 362 581H333L247 120H275Q329 120 367 137T438 193Q473 234 492 287T511 399Z"  />
<glyph unicode="E" horiz-adv-x="526" d="M527 581H334L304 424H490L469 305H283L248 119H475L453 0H37L167 700H548L527 581Z"  />
<glyph unicode="F" horiz-adv-x="490" d="M526 581H334L301 407H488L467 288H279L226 0H37L167 700H548L526 581Z"  />
<glyph unicode="G" horiz-adv-x="677" d="M582 548Q551 558 525 563T468 568Q418 568 377 552T307 507T261 436T244 342Q244 299 256 259T290 188T340 139T399 120Q403 120 410 121T424 124L461 320H639L584 23Q497 -12 395 -12Q241 -12 150 75Q102 121 75 187T48 328Q48 413 86 489T187 618Q238 661 307 686T445 712Q498 712 547 698T642 656L582 548Z"  />
<glyph unicode="H" horiz-adv-x="734" d="M602 0H413L474 326H286L226 0H37L167 700H355L308 445H496L543 700H732L602 0Z"  />
<glyph unicode="I" horiz-adv-x="358" d="M226 0H37L167 700H355L226 0Z"  />
<glyph unicode="J" horiz-adv-x="358" d="M248 122Q216 -51 112 -132Q42 -187 -59 -189L-37 -67Q-14 -57 0 -46T24 -13T43 47T64 148L167 700H355L248 122Z"  />
<glyph unicode="K" horiz-adv-x="640" d="M461 379L603 27L410 -9Q396 29 381 74T350 168T320 264T292 357L226 0H37L167 700H355L299 394Q346 463 408 545T535 709L685 651L461 379Z"  />
<glyph unicode="L" horiz-adv-x="489" d="M455 0H37L167 700H355L247 119H477L455 0Z"  />
<glyph unicode="M" horiz-adv-x="922" d="M790 0H600L709 545Q682 487 661 441T619 353T581 273T542 193T497 105T444 0H344Q336 52 330 103T316 216T300 357T280 545L185 0H26L157 700H407Q414 647 421 591T435 476T447 360T458 248Q507 362 560 471T676 700H920L790 0Z"  />
<glyph unicode="N" horiz-adv-x="734" d="M612 0H473Q405 131 356 237T269 441L187 0H26L157 700H306Q340 633 368 576T420 468T464 369T502 275L581 700H742L612 0Z"  />
<glyph unicode="O" horiz-adv-x="716" d="M700 407Q700 321 669 241T580 101Q525 44 465 16T332 -12Q266 -12 212 11T119 79Q84 119 65 173T45 294Q45 338 55 383T85 472T130 553T190 621Q290 712 425 712Q486 712 537 690T624 628T680 532T700 407ZM511 413Q511 489 485 528T407 568Q372 568 342 547T290 490T254 405T241 300Q241 219 269 176T352 132Q388 132 419 157T472 228Q490 265 500 312T511 413Z"  />
<glyph unicode="P" horiz-adv-x="621" d="M645 513Q645 457 620 406T550 322Q509 292 456 275T353 257Q347 257 337 257T315 259L337 375Q389 377 420 409T452 493Q452 539 430 560T357 581H333L226 0H37L167 700H385Q425 700 454 698T506 691T546 678T579 657Q645 605 645 513Z"  />
<glyph unicode="Q" horiz-adv-x="716" d="M700 402Q700 324 676 256T606 134Q583 107 555 84T495 42L677 -46L589 -166L334 -12Q327 -12 321 -12T308 -11Q249 -7 201 16T118 80T64 174T45 293Q45 338 55 383T85 472T130 553T190 621Q239 666 298 689T421 712Q485 712 536 690T624 628T680 530T700 402ZM511 414Q511 489 484 528T406 568Q371 568 341 547T289 490T254 405T241 300Q241 219 269 176T352 133Q388 133 419 158T472 229Q490 266 500 313T511 414Z"  />
<glyph unicode="R" horiz-adv-x="659" d="M647 518Q647 383 495 311L602 13L402 -10L331 276H277L226 0H37L167 700H373Q421 700 451 699T501 695T536 686T566 671Q605 647 626 607T647 518ZM469 496Q469 552 432 574Q406 590 359 590H335L295 375H324Q363 375 385 381T428 405Q447 421 458 445T469 496Z"  />
<glyph unicode="S" horiz-adv-x="489" d="M443 562Q407 589 372 589Q335 589 313 571T291 523Q291 511 294 500T308 471T337 428T388 359Q407 333 421 308Q435 281 441 255T448 200Q448 153 429 114T376 47T295 4T191 -12Q129 -12 77 5T-14 56L60 163Q78 148 92 139T117 125T140 117T164 115Q204 115 229 139T254 202Q254 214 252 224T243 248T224 280T191 326Q176 346 165 363T144 394Q118 434 110 460T101 517Q101 559 119 594T170 656T247 697T343 712Q432 712 514 662L443 562Z"  />
<glyph unicode="T" horiz-adv-x="526" d="M592 581H418L310 0H121L229 581H48L70 700H613L592 581Z"  />
<glyph unicode="U" horiz-adv-x="696" d="M638 321Q629 272 620 236T600 173T575 123T542 80Q499 32 444 10T311 -12Q199 -12 138 41T76 191Q76 207 77 221T80 252T86 292T97 351L161 700H350L286 353Q281 325 277 304T271 268T268 240T267 217Q267 175 287 154T345 132Q381 132 405 151T448 217Q465 261 479 336L546 700H708L638 321Z"  />
<glyph unicode="V" horiz-adv-x="621" d="M349 0H167L70 683L261 709Q268 639 274 566T285 424T293 291T299 176Q328 243 353 299T405 414T465 543T546 709L711 690L349 0Z"  />
<glyph unicode="W" horiz-adv-x="979" d="M769 0H585Q574 55 566 106T549 211T534 326T519 465Q489 395 463 337T412 224T360 115T303 0H123L84 697L278 709Q278 575 274 443T262 175Q284 226 315 294T379 434T446 576T507 700H651Q656 664 663 609T677 486T693 338T709 175Q742 280 785 409T889 709L1046 690L769 0Z"  />
<glyph unicode="X" horiz-adv-x="583" d="M637 689Q580 615 524 541T406 390L536 15L345 -9Q337 17 322 76T279 242Q230 167 190 107T110 -9L-40 33Q-34 41 -14 68T33 131T91 207T149 284T196 346T222 379Q202 456 179 532T132 689L317 709Q322 686 326 668T334 630T343 585T356 522Q387 569 417 615T480 709L637 689H637Z"  />
<glyph unicode="Y" horiz-adv-x="565" d="M369 272L318 0H130L180 272L85 680L281 709Q290 642 296 600T305 524T311 460T317 384Q339 428 362 472T408 559T452 639T494 709L653 692L369 272Z"  />
<glyph unicode="Z" horiz-adv-x="564" d="M611 630L227 119H531L510 0H-25L-12 71L379 581H150L171 700H625L611 630Z"  />
<glyph unicode="[" horiz-adv-x="433" d="M475 648H347L207 -105H336L319 -191H54L226 734H491L475 648Z"  />
<glyph unicode="\" horiz-adv-x="393" d="M238 -107L109 732H198L328 -107H238Z"  />
<glyph unicode="]" horiz-adv-x="433" d="M213 -191H-53L-37 -105H91L231 648H103L119 734H384L213 -191Z"  />
<glyph unicode="^" horiz-adv-x="621" d="M472 358L333 607L194 358H78L277 700H390L585 358H472Z"  />
<glyph unicode="_" horiz-adv-x="524" d="M0 -167V-51H525V-167H0Z"  />
<glyph unicode="`" horiz-adv-x="501" d="M346 557L107 651L196 744L413 569L346 557Z"  />
<glyph unicode="a" horiz-adv-x="621" d="M503 0H324L335 53Q300 32 277 19T236 0T203 -9T168 -12Q104 -12 68 39T31 182Q31 249 52 309T108 414T191 485T291 512Q331 512 357 497T407 444L418 500H597L503 0ZM383 353Q383 379 370 394T336 410Q314 410 293 391T256 339T231 266T221 181Q221 137 234 114T271 91Q296 91 318 118T357 194Q362 210 367 231T375 274T381 316T383 353Z"  />
<glyph unicode="b" horiz-adv-x="621" d="M586 315Q586 159 486 59Q451 24 412 6T335 -12Q263 -12 211 42L202 0H23L160 735H339L285 443Q334 481 370 496T445 512Q514 512 550 462T586 315ZM400 308Q400 359 388 382T350 405Q326 405 303 381T263 314Q246 276 237 229T227 131Q237 109 253 97T291 85Q312 85 332 103T367 152T391 223T400 308Z"  />
<glyph unicode="c" horiz-adv-x="470" d="M442 389Q401 410 367 410Q337 410 310 395T263 355T231 295T219 223Q219 168 241 137T303 106Q342 106 398 126L430 39Q368 11 320 0T222 -12Q130 -12 77 43T23 195Q23 260 49 317T120 418T225 487T352 512Q392 512 424 504T492 476L442 389Z"  />
<glyph unicode="d" horiz-adv-x="621" d="M502 0H323L334 53Q299 32 276 19T235 0T202 -9T167 -12Q103 -12 66 39T29 182Q29 249 50 309T107 414T190 485T290 512Q330 512 356 497T406 444L460 735H640L502 0ZM382 352Q382 378 369 394T335 410Q313 410 292 391T255 339T230 266T220 181Q220 137 233 114T270 91Q295 91 317 118T356 194Q361 210 366 231T374 273T380 315T382 352Z"  />
<glyph unicode="e" horiz-adv-x="546" d="M531 382Q531 307 458 263T249 212Q241 211 233 211T217 211V200Q217 155 240 131T305 106Q319 106 332 108T360 114T393 127T438 148L476 68Q434 46 400 31T335 7T278 -7T222 -12Q176 -12 143 0T84 39Q56 68 42 106T27 190Q27 253 53 316T127 423Q174 467 232 489T356 512Q439 512 485 478T531 382ZM388 376Q388 397 375 410T339 423Q294 423 264 385Q239 354 226 299Q269 299 293 301T337 311Q360 320 374 338T388 376Z"  />
<glyph unicode="f" horiz-adv-x="358" d="M455 621Q439 627 426 630T397 633Q358 633 340 604Q335 595 331 583T322 545L313 500H421L405 410H297L221 0H42L118 410H47L63 500H134L140 533Q150 591 168 625T219 687Q284 740 376 740Q412 740 440 734T497 713L455 621Z"  />
<glyph unicode="g" horiz-adv-x="621" d="M526 124Q516 72 506 32T484 -39T456 -96T422 -144Q378 -196 317 -223T180 -250Q133 -250 89 -241T-15 -206L32 -91Q65 -112 95 -121T161 -131Q200 -131 233 -118T286 -80Q301 -62 311 -39T328 22L334 53Q299 32 276 19T234 0T201 -9T167 -12Q103 -12 66 39T29 182Q29 249 50 309T107 414T190 485T290 512Q330 512 356 497T406 444L416 500H596L526 124ZM382 352Q382 378 369 394T335 410Q313 410 292 391T255 339T229 266T219 181Q219 137 232 114T269 91Q295 91 317 118T356 194Q362 210 366 231T374 273T380 315T382 352Z"  />
<glyph unicode="h" horiz-adv-x="621" d="M582 416Q582 402 579 376T570 322L511 0H331L385 292Q389 313 391 325T393 344Q393 364 382 376T353 389Q310 389 279 335Q267 314 259 286T240 206L201 0H22L159 735H338L276 402Q358 513 472 513Q524 513 553 488T582 416Z"  />
<glyph unicode="i" horiz-adv-x="320" d="M331 648Q331 625 323 606T300 572T265 549T223 540Q183 540 158 565T133 631Q133 653 141 672T164 706T198 729T241 737Q279 737 305 712T331 648ZM202 0H23L116 500H295L202 0Z"  />
<glyph unicode="j" horiz-adv-x="320" d="M331 648Q331 625 323 606T300 572T265 549T223 540Q183 540 158 565T133 631Q133 653 141 672T164 706T198 729T241 737Q279 737 305 712T331 648ZM205 17Q179 -120 110 -185T-85 -250L-69 -160Q-49 -154 -35 -144T-11 -114T8 -64T25 12L116 500H295L205 17Z"  />
<glyph unicode="k" horiz-adv-x="564" d="M404 279L523 43L344 -9L253 276L201 0H22L159 735H338L256 295H264L437 510L566 459L404 279Z"  />
<glyph unicode="l" horiz-adv-x="320" d="M202 0H23L160 735H339L202 0Z"  />
<glyph unicode="m" horiz-adv-x="922" d="M883 414Q883 399 880 375T869 315L811 0H632L686 293Q690 314 692 328T695 353Q695 369 685 379T658 389Q620 389 592 348T549 227L507 0H326L380 293Q384 312 386 323T389 339T390 348T391 354Q391 369 381 379T354 389Q308 389 278 332Q256 291 244 227L201 0H22L116 500H295L280 417Q331 468 374 490T466 512Q519 512 548 486Q575 460 577 412Q625 464 671 488T767 512Q823 512 853 487T883 414Z"  />
<glyph unicode="n" horiz-adv-x="621" d="M582 416Q582 401 579 377T570 322L511 0H331L385 292Q388 310 390 324T393 344Q393 364 382 376T353 389Q310 389 279 335Q267 314 259 286T240 206L201 0H22L116 500H295L276 402Q359 512 473 512Q524 512 553 487T582 416Z"  />
<glyph unicode="o" horiz-adv-x="603" d="M571 276Q571 216 547 164T482 72T385 11T265 -12Q214 -12 171 6T96 55T46 130T28 224Q28 283 53 335T120 427T219 489T340 512Q390 512 432 495T505 446T553 371T571 276ZM382 318Q382 424 326 424Q305 424 286 406T251 357T228 286T219 202Q219 140 233 108T277 76Q320 76 347 129Q354 144 360 166T372 213T379 266T382 318Z"  />
<glyph unicode="p" horiz-adv-x="621" d="M585 315Q585 159 485 59Q450 24 412 6T334 -12Q262 -12 210 42L156 -250H-23L116 500H295L285 443Q334 481 370 496T444 512Q513 512 549 462T585 315ZM399 308Q399 359 387 382T349 405Q325 405 302 381T262 314Q246 276 237 229T227 131Q236 109 253 97T290 85Q312 85 331 103T366 152T390 223T399 308Z"  />
<glyph unicode="q" horiz-adv-x="621" d="M458 -250H279L335 53Q282 18 244 3T166 -12Q103 -12 71 33Q51 61 41 98T31 180Q31 252 57 320T128 437Q198 512 290 512Q334 512 360 497T407 443L417 500H596L458 -250ZM383 352Q383 378 370 394T336 410Q314 410 293 391T256 339T230 266T220 181Q220 137 233 114T270 91Q296 91 318 118T357 194Q362 210 367 231T375 273T381 315T383 352Z"  />
<glyph unicode="r" horiz-adv-x="433" d="M404 326Q389 332 380 334T358 337Q304 337 274 295Q261 278 253 251T235 175L202 0H23L116 500H295L275 390L313 445Q327 466 338 479T359 499T381 509T407 512Q430 512 447 504T488 472L404 326Z"  />
<glyph unicode="s" horiz-adv-x="413" d="M358 390Q326 410 295 410Q271 410 258 398T245 366Q245 353 251 340T275 306Q305 269 323 244T351 201T364 167T368 135Q368 102 353 75T309 29T240 -1T150 -12Q102 -12 62 -4T-17 23L24 128Q80 91 127 91Q153 91 168 103T184 136Q184 145 182 154T173 174T157 198T131 231Q95 274 81 303T67 364Q67 395 81 422T121 469T181 500T257 512Q302 512 338 502T411 469L358 390Z"  />
<glyph unicode="t" horiz-adv-x="376" d="M404 410H283L248 224Q242 191 240 174T237 146Q237 97 287 97Q299 97 311 99T342 110L347 22Q311 5 269 -3T184 -12Q51 -12 51 90Q51 100 51 106T53 121T58 146T67 191L107 410H45L62 500H126L148 621L329 651L301 500H421L404 410Z"  />
<glyph unicode="u" horiz-adv-x="621" d="M503 0H324L343 99Q261 -12 146 -12Q95 -12 67 13T38 84Q38 98 41 126T49 179L109 500H288L234 209Q231 194 230 186T228 173T227 164T226 156Q226 136 237 124T265 112Q285 112 305 126T340 166Q352 187 360 215T379 295L417 500H596L503 0Z"  />
<glyph unicode="v" horiz-adv-x="489" d="M249 0H120L42 486L226 511Q234 420 238 342T244 183Q261 225 277 260T310 333T348 413T397 511L532 486L249 0Z"  />
<glyph unicode="w" horiz-adv-x="809" d="M572 0H443Q434 43 429 75T419 139T411 208T403 298Q390 265 376 232T343 161Q326 127 306 88T259 0H129L56 482L239 511Q244 451 246 389T249 277Q249 252 248 230T244 168Q254 193 267 222T298 290T342 380T403 500H537Q548 412 554 329T561 168Q587 240 624 326T710 511L848 492L572 0Z"  />
<glyph unicode="x" horiz-adv-x="489" d="M520 486Q494 454 467 424T415 365T366 313T323 270Q341 240 358 209T392 145Q427 78 457 12L261 -12Q247 23 235 64T211 160Q179 110 145 66T81 -12L-57 12Q-37 36 -11 67T45 130T104 195T159 253Q141 289 128 317T103 371T80 425T56 486L247 512Q260 474 268 441T283 361Q294 380 307 400T334 440Q351 463 365 482T390 512L520 486H520Z"  />
<glyph unicode="y" horiz-adv-x="489" d="M75 -250L-53 -191L108 57L49 489L235 512Q237 452 238 403T239 298Q239 283 239 271T239 246T239 219T237 184Q251 215 272 259T316 349T363 438T405 512L540 489L75 -250Z"  />
<glyph unicode="z" horiz-adv-x="451" d="M464 437L203 114H416L395 0H-37L-26 53L254 392H80L101 500H476L464 437Z"  />
<glyph unicode="{" horiz-adv-x="376" d="M403 658Q389 655 376 651T351 639Q337 629 329 612T315 576T306 537T300 502Q296 480 292 454T282 402T266 351T241 309Q230 296 218 286T193 265Q204 253 211 243T223 221T230 198T232 169Q232 147 229 126T221 82Q218 64 214 43T206 2T199 -37T196 -68Q196 -96 214 -109T257 -127L243 -202Q210 -202 177 -198T118 -182T75 -145T58 -80Q58 -48 64 -16T76 48Q79 63 81 77T86 107Q89 123 91 139T94 171Q94 198 76 218Q70 225 60 228T42 234L54 297Q66 300 78 304T100 316Q114 326 123 343T139 381T148 421T154 457Q159 496 168 535T192 611Q208 650 230 674T281 710T344 727T417 733L403 658Z"  />
<glyph unicode="|" horiz-adv-x="384" d="M160 -251V700H266V-251H160Z"  />
<glyph unicode="}" horiz-adv-x="376" d="M326 233Q300 228 284 217T257 186T239 139T226 73Q215 4 201 -47T160 -133T86 -184T-37 -202L-22 -127Q7 -121 24 -109T52 -79T68 -34T80 27Q87 67 92 96T104 146T116 183T132 212Q143 228 157 240T186 264Q164 288 156 308T147 361Q147 385 151 409T160 456Q163 473 167 492T175 531T181 568T184 599Q184 627 167 640T123 657L137 733H155Q186 733 216 728T270 708T307 671T322 610Q322 564 311 518T293 425Q291 409 289 393T286 360Q286 331 298 318T339 297L326 233Z"  />
<glyph unicode="~" horiz-adv-x="621" d="M594 352Q590 326 584 305T568 263Q545 215 509 189T421 163Q393 163 365 174T302 200Q276 211 261 219T224 227Q195 227 176 207T150 163H50Q57 191 64 214T80 257Q103 305 138 326T218 348Q240 348 265 340T324 315Q342 306 355 300T379 291T399 286T420 284Q437 284 449 288T469 301T483 322T496 352H594H594Z"  />
<glyph unicode="&#xA0;" horiz-adv-x="262" />
<glyph unicode="&#xA1;" horiz-adv-x="413" d="M327 429Q327 410 320 393T300 363T271 343T236 335Q201 335 178 358T154 414Q154 433 161 450T181 480T211 500T247 508Q281 508 304 486T327 429ZM217 -234H19L160 273H267L217 -234Z"  />
<glyph unicode="&#xA2;" horiz-adv-x="621" d="M527 467Q510 477 503 480T483 486L378 201Q402 203 425 208T474 225L508 137Q467 118 426 107T338 90L292 -36H209L254 90Q180 104 141 155T102 290Q102 357 125 415T190 516T287 583T408 608Q413 608 422 608T443 606L473 688H556L522 590Q530 587 536 584T548 578T561 569T578 557L527 467ZM410 497Q378 489 356 476T317 438Q300 413 290 378T279 308Q279 279 286 261T311 225L410 497Z"  />
<glyph unicode="&#xA3;" horiz-adv-x="621" d="M579 573Q561 590 545 597T507 604Q484 604 466 596T432 571T403 526T376 457L365 423H506L488 329H343L323 270Q305 217 288 187T246 137Q280 137 322 131T415 124Q431 124 444 125T468 128T491 135T517 146L547 39Q526 25 507 15T466 -1T421 -9T368 -12Q354 -12 343 -12T318 -10T287 -7T244 -2Q207 3 182 5T134 7Q118 7 -11 1L6 96Q34 108 52 118T84 146T109 190T135 263L156 329H68L86 423H179L193 468Q231 590 304 651T485 712Q540 712 578 696T652 640L579 573Z"  />
<glyph unicode="&#xA4;" horiz-adv-x="682" d="M521 92L450 161Q422 145 393 139T337 132Q310 132 281 138T224 161L153 92L69 177L140 244Q121 278 116 306T110 354Q110 373 115 402T140 464L69 532L153 617L224 548Q252 564 281 570T337 577Q364 577 393 571T450 548L521 617L605 532L534 464Q553 431 558 402T564 354Q564 335 559 307T534 244L605 177L521 92ZM444 355Q444 377 435 396T411 429T377 451T337 459Q315 459 296 451T262 429T239 396T230 355Q230 333 238 314T261 281T295 258T337 250Q359 250 378 258T412 280T435 314T444 355Z"  />
<glyph unicode="&#xA5;" horiz-adv-x="621" d="M493 418H596L588 364H458L400 280H572L562 228H387L345 0H169L213 228H43L53 280H218L195 364H69L77 418H181L109 688L291 712L347 398L544 712L681 698L493 418Z"  />
<glyph unicode="&#xA6;" horiz-adv-x="384" d="M153 364V734H259V364H153ZM153 -191V179H259V-191H153Z"  />
<glyph unicode="&#xA7;" horiz-adv-x="621" d="M559 273Q559 217 518 176T402 117Q418 96 424 77T431 32Q431 -5 415 -38T369 -95T302 -134T219 -148Q170 -148 121 -130T40 -81L92 10Q128 -13 155 -23T204 -34Q230 -34 246 -20T262 16Q262 25 259 33T247 52T220 80T174 123Q145 150 126 169T96 206T81 239T77 276Q77 302 85 324T110 368T154 410T219 452Q197 477 189 493T181 531Q181 568 197 601T240 658T305 697T383 712Q472 712 546 650L494 561Q463 586 442 596T403 606Q377 606 361 591T345 553Q345 540 350 531T374 502Q386 490 406 473T456 429Q486 403 506 383T538 345T554 310T559 273ZM403 252Q403 266 399 279T380 304L291 383Q225 360 225 312Q225 302 226 295T234 278T254 255T290 220L335 178Q403 198 403 252Z"  />
<glyph unicode="&#xA8;" horiz-adv-x="500" d="M280 650Q280 619 259 598T207 576Q181 576 164 594T146 638Q146 668 166 689T216 711Q243 711 261 694T280 650ZM499 650Q499 619 478 598T426 576Q400 576 383 594T365 638Q365 668 385 689T435 711Q462 711 480 694T499 650Z"  />
<glyph unicode="&#xA9;" horiz-adv-x="784" d="M766 344Q766 269 738 203T661 87T547 10T407 -19Q332 -19 267 9T153 87T76 203T47 344Q47 420 75 486T153 602T269 679T413 707Q485 707 549 678T662 600T738 484T766 344ZM684 343Q684 404 663 457T603 550T514 612T405 635Q348 635 298 612T211 550T151 457T129 345Q129 285 151 232T211 139T300 76T408 53Q465 53 515 76T602 138T662 230T684 343ZM572 159Q539 143 510 137T442 130Q407 130 375 136T317 155Q262 181 230 233T197 346Q197 392 215 431T267 498T346 541T446 557Q478 557 506 552T563 536L530 456Q511 461 497 463T467 465Q405 465 370 432T335 340Q335 221 444 221Q469 221 485 223T525 237L536 242L572 159Z"  />
<glyph unicode="&#xAA;" horiz-adv-x="413" d="M385 402H247L254 439Q222 412 203 404T160 395Q115 395 90 428T64 517Q64 556 77 591T112 654T163 696T225 712Q251 712 266 704T297 673L303 705H441L385 402ZM287 614Q287 646 265 646Q253 646 242 635T223 605T209 563T204 514Q204 461 227 461Q238 461 248 474T267 510T281 559T287 614Z"  />
<glyph unicode="&#xAB;" horiz-adv-x="583" d="M413 235L487 87L413 54L269 232L467 415L530 388L413 235ZM188 235L261 87L188 54L43 232L240 415L305 388L188 235Z"  />
<glyph unicode="&#xAC;" horiz-adv-x="621" d="M477 98V289H76V395H583V98H477Z"  />
<glyph unicode="&#xAD;" horiz-adv-x="376" d="M338 204H38L56 304H356L338 204Z"  />
<glyph unicode="&#xAE;" horiz-adv-x="427" d="M461 596Q461 558 447 524T408 465T350 426T278 411Q240 411 207 425T148 465T109 524T94 596Q94 635 108 669T148 727T207 766T281 781Q318 781 351 767T408 727T447 668T461 596ZM425 595Q425 628 414 656T382 706T334 739T276 751Q246 751 220 739T173 705T142 656T130 597Q130 565 141 537T173 488T221 455T278 442Q308 442 335 454T382 487T413 535T425 595ZM314 496L278 578H253V500H205V700H276Q302 700 313 698T334 689Q358 673 358 644Q358 626 350 611T323 588L364 505L314 496ZM304 644Q304 658 296 662T273 666H253V615H273Q304 615 304 644Z"  />
<glyph unicode="&#xAF;" horiz-adv-x="503" d="M495 590H108L126 678H512L495 590Z"  />
<glyph unicode="&#xB0;" horiz-adv-x="396" d="M407 593Q407 562 395 535T363 486T315 453T256 441Q224 441 197 453T149 486T116 534T104 594Q104 625 116 652T149 700T198 733T259 745Q289 745 316 733T363 700T395 652T407 593ZM323 594Q323 622 304 641T255 660Q228 660 208 641T188 593Q188 565 208 546T256 526Q285 526 304 545T323 594Z"  />
<glyph unicode="&#xB1;" horiz-adv-x="621" d="M379 313V144H273V313H73V419H273V620H379V419H579V313H379ZM73 -1V104H579V-1H73Z"  />
<glyph unicode="&#xB2;" horiz-adv-x="440" d="M458 773Q458 752 449 729T414 678T347 618T241 547H414L396 450H52L63 518Q108 552 138 575T189 614T224 642T249 665Q279 694 293 716T308 757Q308 771 299 780T274 789Q255 789 230 778T173 743L140 818Q185 850 228 864T316 879Q379 879 418 850T458 773Z"  />
<glyph unicode="&#xB3;" horiz-adv-x="440" d="M427 782Q427 749 401 720T315 677V673Q411 652 411 580Q411 550 396 525T353 482T287 453T203 443Q165 443 133 450T70 473L117 543Q139 529 155 525T190 520Q221 520 241 535T261 577Q261 635 174 635Q168 635 158 635T143 633L157 704Q172 704 192 705T232 713T264 731T278 765Q278 782 267 792T236 802Q210 802 169 780L151 849Q190 865 223 872T290 879Q352 879 389 853T427 782Z"  />
<glyph unicode="&#xB4;" horiz-adv-x="506" d="M247 557L177 569L444 729L515 642L247 557Z"  />
<glyph unicode="&#xB5;" horiz-adv-x="618" d="M510 0H331L348 93Q317 41 292 18T237 -5Q213 -5 206 27L168 -181H-11L115 500H294L240 208Q237 194 236 186T234 172T233 164T233 156Q233 136 244 124T273 112Q316 112 347 166Q359 186 367 214T385 295L424 500H603L510 0Z"  />
<glyph unicode="&#xB6;" horiz-adv-x="718" d="M682 617H631L494 -119H389L526 617H449L312 -119H207L292 341Q287 340 283 340T277 340Q246 340 215 351T162 380Q123 414 123 478Q123 526 142 570T196 643Q219 663 251 677T319 696Q332 698 351 699T405 700H698L682 617Z"  />
<glyph unicode="&#xB7;" horiz-adv-x="301" d="M255 250Q255 210 229 184T163 157Q123 157 96 183T69 247Q69 291 95 317T165 343Q203 343 229 317T255 250Z"  />
<glyph unicode="&#xB8;" horiz-adv-x="524" d="M331 -141Q331 -165 318 -186T283 -222T229 -247T163 -256Q138 -256 115 -253T62 -242L96 -185Q119 -189 133 -190T154 -191Q183 -191 200 -179T218 -148Q218 -136 208 -129T180 -121Q162 -121 144 -124L136 -117L199 0H267L229 -74Q239 -72 244 -72T255 -72Q290 -72 310 -90T331 -141Z"  />
<glyph unicode="&#xB9;" horiz-adv-x="440" d="M318 450H181L248 781L139 744V821L291 872H407L318 450Z"  />
<glyph unicode="&#xBA;" horiz-adv-x="413" d="M427 567Q427 530 412 499T369 444T304 408T223 395Q187 395 157 406T105 436T70 481T57 538Q57 574 73 605T117 661T182 698T263 712Q299 712 329 701T381 671T415 625T427 567ZM286 593Q286 654 257 654Q245 654 235 643T216 614T204 571T199 521Q199 453 230 453Q242 453 252 464T269 494T281 538T286 593Z"  />
<glyph unicode="&#xBB;" horiz-adv-x="583" d="M316 54L252 82L369 234L295 382L369 415L513 238L316 54ZM90 54L26 82L143 234L70 382L143 415L287 238L90 54Z"  />
<glyph unicode="&#xBC;" horiz-adv-x="988" d="M298 278H161L228 609L119 572V649L271 700H387L298 278ZM316 0H226L684 700H775L316 0ZM938 91H877L860 0H733L751 91H553L563 158L825 422H945L893 172H954L938 91ZM672 172H770L798 302L672 172Z"  />
<glyph unicode="&#xBD;" horiz-adv-x="993" d="M298 278H161L228 609L119 572V649L271 700H387L298 278ZM321 0H231L689 700H780L321 0ZM958 323Q958 302 949 279T914 228T847 168T741 97H914L896 0H552L563 68Q608 102 638 125T689 164T724 192T749 215Q779 244 793 266T808 307Q808 321 799 330T774 339Q755 339 730 328T673 293L640 368Q685 400 728 414T816 429Q879 429 918 400T958 323Z"  />
<glyph unicode="&#xBE;" horiz-adv-x="993" d="M407 610Q407 577 381 548T295 505V501Q391 480 391 408Q391 378 376 353T333 310T267 281T183 271Q145 271 113 278T50 301L97 371Q119 357 135 353T170 348Q201 348 221 363T241 405Q241 463 154 463Q148 463 138 463T123 461L137 532Q152 532 172 533T212 541T244 559T258 593Q258 610 247 620T216 630Q190 630 149 608L131 677Q170 693 203 700T270 707Q332 707 369 681T407 610ZM331 0H241L699 700H790L331 0ZM943 91H882L865 0H738L756 91H558L568 158L830 422H950L898 172H959L943 91ZM677 172H775L803 302L677 172Z"  />
<glyph unicode="&#xBF;" horiz-adv-x="508" d="M415 426Q415 407 408 390T388 361T360 341T325 333Q290 333 266 355T242 411Q242 430 249 447T269 478T299 498T336 506Q369 506 392 483T415 426ZM410 -139Q304 -236 176 -236Q135 -236 102 -227T46 -199T9 -157T-4 -102Q-4 -74 4 -49T33 1Q40 9 53 23T98 71Q131 105 155 133T197 186T224 231T240 273H374Q374 254 372 240T362 208T339 168T299 108Q254 45 234 3T214 -70Q214 -93 226 -108T258 -123Q277 -123 300 -110T365 -62L410 -139Z"  />
<glyph unicode="&#xC0;" horiz-adv-x="640" d="M406 0L389 167H203L112 0H-47L341 700H484L592 0H406ZM379 279Q375 312 373 341T368 399T365 458T363 523Q348 484 334 451T308 389T282 333T256 279H379ZM465 757L226 851L315 944L532 769L465 757Z"  />
<glyph unicode="&#xC1;" horiz-adv-x="640" d="M406 0L389 167H203L112 0H-47L341 700H484L592 0H406ZM379 279Q375 312 373 341T368 399T365 458T363 523Q348 484 334 451T308 389T282 333T256 279H379ZM318 757L248 769L515 929L586 842L318 757Z"  />
<glyph unicode="&#xC2;" horiz-adv-x="640" d="M406 0L389 167H203L112 0H-47L341 700H484L592 0H406ZM379 279Q375 312 373 341T368 399T365 458T363 523Q348 484 334 451T308 389T282 333T256 279H379ZM516 757L429 836L320 757H258L406 925H469L579 757H516Z"  />
<glyph unicode="&#xC3;" horiz-adv-x="640" d="M406 0L389 167H203L112 0H-47L341 700H484L592 0H406ZM379 279Q375 312 373 341T368 399T365 458T363 523Q348 484 334 451T308 389T282 333T256 279H379ZM627 903Q622 885 616 870T602 841Q564 780 489 780Q469 780 453 784T410 803Q393 812 380 815T351 819Q308 819 285 777H230Q244 816 261 843Q281 875 307 889T368 903Q384 903 398 900T437 885Q460 874 474 868T505 862Q531 862 546 871T574 903H627H627Z"  />
<glyph unicode="&#xC4;" horiz-adv-x="640" d="M406 0L389 167H203L112 0H-47L341 700H484L592 0H406ZM379 279Q375 312 373 341T368 399T365 458T363 523Q348 484 334 451T308 389T282 333T256 279H379ZM381 850Q381 819 360 798T308 776Q282 776 265 794T247 838Q247 868 267 889T317 911Q344 911 362 894T381 850ZM600 850Q600 819 579 798T527 776Q501 776 484 794T466 838Q466 868 486 889T536 911Q563 911 581 894T600 850Z"  />
<glyph unicode="&#xC5;" horiz-adv-x="640" d="M406 0L389 167H203L112 0H-47L341 700H484L592 0H406ZM379 279Q375 312 373 341T368 399T365 458T363 523Q348 484 334 451T308 389T282 333T256 279H379ZM516 868Q516 845 507 825T482 790T445 766T400 757Q361 757 335 782T308 844Q308 866 317 887T343 923T380 948T425 958Q463 958 489 932T516 868ZM452 862Q452 879 443 888T416 898Q397 898 385 885T372 853Q372 836 381 826T408 816Q428 816 440 829T452 862Z"  />
<glyph unicode="&#xC6;" horiz-adv-x="826" d="M826 581H634L604 425H791L769 306H583L548 119H777L755 0H337L368 168H177L68 0H-94L396 700H848L826 581ZM445 586Q423 549 405 519T365 456T316 382T250 280H389L445 586Z"  />
<glyph unicode="&#xC7;" horiz-adv-x="583" d="M577 548Q544 559 519 563T465 568Q364 568 306 507Q277 475 261 432T244 341Q244 295 258 257T297 191T357 148T434 132Q454 132 473 134T515 144L545 14Q465 -12 394 -12Q375 -12 341 -9L307 -76Q315 -74 321 -74T333 -74Q371 -74 391 -92T412 -144Q412 -169 399 -191T363 -229T308 -254T240 -263Q214 -263 191 -260T138 -250L172 -190Q187 -194 196 -196T212 -199T224 -200T236 -201Q265 -201 280 -190T296 -159Q296 -125 256 -125Q248 -125 239 -125T222 -127L213 -120L279 3Q227 17 185 46T112 118T65 212T48 323Q48 405 78 476T163 600T290 682T447 712Q501 712 547 699T638 656L577 548Z"  />
<glyph unicode="&#xC8;" horiz-adv-x="526" d="M527 581H334L304 424H490L469 305H283L248 119H475L453 0H37L167 700H548L527 581ZM419 757L180 851L269 944L486 769L419 757Z"  />
<glyph unicode="&#xC9;" horiz-adv-x="526" d="M527 581H334L304 424H490L469 305H283L248 119H475L453 0H37L167 700H548L527 581ZM275 757L205 769L472 929L543 842L275 757Z"  />
<glyph unicode="&#xCA;" horiz-adv-x="526" d="M527 581H334L304 424H490L469 305H283L248 119H475L453 0H37L167 700H548L527 581ZM464 757L377 836L268 757H206L354 925H417L527 757H464Z"  />
<glyph unicode="&#xCB;" horiz-adv-x="526" d="M527 581H334L304 424H490L469 305H283L248 119H475L453 0H37L167 700H548L527 581ZM330 850Q330 819 309 798T257 776Q231 776 214 794T196 838Q196 868 216 889T266 911Q293 911 311 894T330 850ZM549 850Q549 819 528 798T476 776Q450 776 433 794T415 838Q415 868 435 889T485 911Q512 911 530 894T549 850Z"  />
<glyph unicode="&#xCC;" horiz-adv-x="358" d="M226 0H37L167 700H355L226 0ZM327 757L88 851L177 944L394 769L327 757Z"  />
<glyph unicode="&#xCD;" horiz-adv-x="358" d="M226 0H37L167 700H355L226 0ZM179 757L109 769L376 929L447 842L179 757Z"  />
<glyph unicode="&#xCE;" horiz-adv-x="358" d="M226 0H37L167 700H355L226 0ZM369 757L282 836L173 757H111L259 925H322L432 757H369Z"  />
<glyph unicode="&#xCF;" horiz-adv-x="358" d="M226 0H37L167 700H355L226 0ZM243 850Q243 819 222 798T170 776Q144 776 127 794T109 838Q109 868 129 889T179 911Q206 911 224 894T243 850ZM462 850Q462 819 441 798T389 776Q363 776 346 794T328 838Q328 868 348 889T398 911Q425 911 443 894T462 850Z"  />
<glyph unicode="&#xD0;" horiz-adv-x="716" d="M705 406Q705 292 651 201T499 56Q470 40 442 30T383 13T314 3T230 0H36L95 316H25L42 403H111L166 700H362Q410 700 446 698T510 688T560 670T603 643Q653 604 679 543T705 406ZM511 399Q511 496 464 543Q426 581 361 581H333L299 403H400L383 316H284L247 120H274Q328 120 366 137T438 193Q473 234 492 287T511 399Z"  />
<glyph unicode="&#xD1;" horiz-adv-x="734" d="M612 0H473Q405 131 356 237T269 441L187 0H26L157 700H306Q340 633 368 576T420 468T464 369T502 275L581 700H742L612 0ZM665 903Q660 885 654 870T640 841Q602 780 527 780Q507 780 491 784T448 803Q431 812 418 815T389 819Q346 819 323 777H268Q282 816 299 843Q319 875 345 889T406 903Q422 903 436 900T475 885Q498 874 512 868T543 862Q569 862 584 871T612 903H665H665Z"  />
<glyph unicode="&#xD2;" horiz-adv-x="716" d="M700 407Q700 321 669 241T580 101Q525 44 465 16T332 -12Q266 -12 212 11T119 79Q84 119 65 173T45 294Q45 338 55 383T85 472T130 553T190 621Q290 712 425 712Q486 712 537 690T624 628T680 532T700 407ZM511 413Q511 489 485 528T407 568Q372 568 342 547T290 490T254 405T241 300Q241 219 269 176T352 132Q388 132 419 157T472 228Q490 265 500 312T511 413ZM493 757L254 851L343 944L560 769L493 757Z"  />
<glyph unicode="&#xD3;" horiz-adv-x="716" d="M700 407Q700 321 669 241T580 101Q525 44 465 16T332 -12Q266 -12 212 11T119 79Q84 119 65 173T45 294Q45 338 55 383T85 472T130 553T190 621Q290 712 425 712Q486 712 537 690T624 628T680 532T700 407ZM511 413Q511 489 485 528T407 568Q372 568 342 547T290 490T254 405T241 300Q241 219 269 176T352 132Q388 132 419 157T472 228Q490 265 500 312T511 413ZM356 757L286 769L553 929L624 842L356 757Z"  />
<glyph unicode="&#xD4;" horiz-adv-x="716" d="M700 407Q700 321 669 241T580 101Q525 44 465 16T332 -12Q266 -12 212 11T119 79Q84 119 65 173T45 294Q45 338 55 383T85 472T130 553T190 621Q290 712 425 712Q486 712 537 690T624 628T680 532T700 407ZM511 413Q511 489 485 528T407 568Q372 568 342 547T290 490T254 405T241 300Q241 219 269 176T352 132Q388 132 419 157T472 228Q490 265 500 312T511 413ZM538 757L451 836L342 757H280L428 925H491L601 757H538Z"  />
<glyph unicode="&#xD5;" horiz-adv-x="716" d="M700 407Q700 321 669 241T580 101Q525 44 465 16T332 -12Q266 -12 212 11T119 79Q84 119 65 173T45 294Q45 338 55 383T85 472T130 553T190 621Q290 712 425 712Q486 712 537 690T624 628T680 532T700 407ZM511 413Q511 489 485 528T407 568Q372 568 342 547T290 490T254 405T241 300Q241 219 269 176T352 132Q388 132 419 157T472 228Q490 265 500 312T511 413ZM651 903Q646 885 640 870T626 841Q588 780 513 780Q493 780 477 784T434 803Q417 812 404 815T375 819Q332 819 309 777H254Q268 816 285 843Q305 875 331 889T392 903Q408 903 422 900T461 885Q484 874 498 868T529 862Q555 862 570 871T598 903H651H651Z"  />
<glyph unicode="&#xD6;" horiz-adv-x="716" d="M700 407Q700 321 669 241T580 101Q525 44 465 16T332 -12Q266 -12 212 11T119 79Q84 119 65 173T45 294Q45 338 55 383T85 472T130 553T190 621Q290 712 425 712Q486 712 537 690T624 628T680 532T700 407ZM511 413Q511 489 485 528T407 568Q372 568 342 547T290 490T254 405T241 300Q241 219 269 176T352 132Q388 132 419 157T472 228Q490 265 500 312T511 413ZM407 850Q407 819 386 798T334 776Q308 776 291 794T273 838Q273 868 293 889T343 911Q370 911 388 894T407 850ZM626 850Q626 819 605 798T553 776Q527 776 510 794T492 838Q492 868 512 889T562 911Q589 911 607 894T626 850Z"  />
<glyph unicode="&#xD7;" horiz-adv-x="621" d="M467 38L326 183L185 39L111 114L254 255L110 396L184 470L326 326L466 469L542 395L397 255L542 113L467 38Z"  />
<glyph unicode="&#xD8;" horiz-adv-x="716" d="M669 558Q678 537 684 519T694 484T699 448T701 409Q701 318 667 234T568 88Q465 -12 329 -12Q264 -12 216 8T122 75L22 -16L-34 48L76 146Q45 212 45 296Q45 338 54 381T81 466T124 544T180 612Q282 712 422 712Q485 712 532 694T621 633L723 721L780 656L669 558ZM486 522Q471 547 453 557T408 568Q371 568 338 546T282 481Q273 464 265 442T252 396T243 348T239 302Q239 299 239 296T241 286L486 522ZM511 427L261 189Q290 132 352 132Q412 132 454 196Q467 215 477 240T495 294T507 353T511 412V427Z"  />
<glyph unicode="&#xD9;" horiz-adv-x="696" d="M638 321Q629 272 620 236T600 173T575 123T542 80Q499 32 444 10T311 -12Q199 -12 138 41T76 191Q76 207 77 221T80 252T86 292T97 351L161 700H350L286 353Q281 325 277 304T271 268T268 240T267 217Q267 175 287 154T345 132Q381 132 405 151T448 217Q465 261 479 336L546 700H708L638 321ZM481 757L242 851L331 944L548 769L481 757Z"  />
<glyph unicode="&#xDA;" horiz-adv-x="696" d="M638 321Q629 272 620 236T600 173T575 123T542 80Q499 32 444 10T311 -12Q199 -12 138 41T76 191Q76 207 77 221T80 252T86 292T97 351L161 700H350L286 353Q281 325 277 304T271 268T268 240T267 217Q267 175 287 154T345 132Q381 132 405 151T448 217Q465 261 479 336L546 700H708L638 321ZM378 757L308 769L575 929L646 842L378 757Z"  />
<glyph unicode="&#xDB;" horiz-adv-x="696" d="M638 321Q629 272 620 236T600 173T575 123T542 80Q499 32 444 10T311 -12Q199 -12 138 41T76 191Q76 207 77 221T80 252T86 292T97 351L161 700H350L286 353Q281 325 277 304T271 268T268 240T267 217Q267 175 287 154T345 132Q381 132 405 151T448 217Q465 261 479 336L546 700H708L638 321ZM552 757L465 836L356 757H294L442 925H505L615 757H552Z"  />
<glyph unicode="&#xDC;" horiz-adv-x="696" d="M638 321Q629 272 620 236T600 173T575 123T542 80Q499 32 444 10T311 -12Q199 -12 138 41T76 191Q76 207 77 221T80 252T86 292T97 351L161 700H350L286 353Q281 325 277 304T271 268T268 240T267 217Q267 175 287 154T345 132Q381 132 405 151T448 217Q465 261 479 336L546 700H708L638 321ZM424 850Q424 819 403 798T351 776Q325 776 308 794T290 838Q290 868 310 889T360 911Q387 911 405 894T424 850ZM643 850Q643 819 622 798T570 776Q544 776 527 794T509 838Q509 868 529 889T579 911Q606 911 624 894T643 850Z"  />
<glyph unicode="&#xDD;" horiz-adv-x="565" d="M369 272L318 0H130L180 272L85 680L281 709Q290 642 296 600T305 524T311 460T317 384Q339 428 362 472T408 559T452 639T494 709L653 692L369 272ZM334 757L264 769L531 929L602 842L334 757Z"  />
<glyph unicode="&#xDE;" horiz-adv-x="621" d="M621 394Q621 323 591 269T503 179Q420 128 296 128H249L226 0H37L167 700H355L335 588H366Q402 588 428 586T474 580T511 568T544 549Q582 523 601 484T621 394ZM428 376Q428 426 396 453Q369 475 330 475H313L271 242H282Q344 242 383 275Q428 312 428 376Z"  />
<glyph unicode="&#xDF;" horiz-adv-x="678" d="M623 160Q623 124 607 93T562 39T494 3T409 -10Q311 -10 246 37L300 135Q330 109 349 101T390 92Q413 92 428 105T443 139Q443 153 436 165T408 198Q387 219 373 235T351 265T339 292T335 319Q335 340 341 363T362 410Q364 413 365 415T371 424T384 441T407 473Q427 500 438 530T450 581Q450 606 437 620T402 634Q350 634 320 577Q309 557 302 528T284 448L200 1H21L111 484Q118 521 126 548T144 598T169 637T202 670Q243 703 298 721T411 740Q454 740 490 730T554 701T596 658T611 604Q611 588 609 575T598 546T576 507T538 450Q521 427 515 410T509 376Q509 346 529 320Q531 317 542 303T576 266Q602 237 612 213T623 160Z"  />
<glyph unicode="&#xE0;" horiz-adv-x="621" d="M503 0H324L335 53Q300 32 277 19T236 0T203 -9T168 -12Q104 -12 68 39T31 182Q31 249 52 309T108 414T191 485T291 512Q331 512 357 497T407 444L418 500H597L503 0ZM383 353Q383 379 370 394T336 410Q314 410 293 391T256 339T231 266T221 181Q221 137 234 114T271 91Q296 91 318 118T357 194Q362 210 367 231T375 274T381 316T383 353ZM446 557L207 651L296 744L513 569L446 557Z"  />
<glyph unicode="&#xE1;" horiz-adv-x="621" d="M503 0H324L335 53Q300 32 277 19T236 0T203 -9T168 -12Q104 -12 68 39T31 182Q31 249 52 309T108 414T191 485T291 512Q331 512 357 497T407 444L418 500H597L503 0ZM383 353Q383 379 370 394T336 410Q314 410 293 391T256 339T231 266T221 181Q221 137 234 114T271 91Q296 91 318 118T357 194Q362 210 367 231T375 274T381 316T383 353ZM305 557L235 569L502 729L573 642L305 557Z"  />
<glyph unicode="&#xE2;" horiz-adv-x="621" d="M503 0H324L335 53Q300 32 277 19T236 0T203 -9T168 -12Q104 -12 68 39T31 182Q31 249 52 309T108 414T191 485T291 512Q331 512 357 497T407 444L418 500H597L503 0ZM383 353Q383 379 370 394T336 410Q314 410 293 391T256 339T231 266T221 181Q221 137 234 114T271 91Q296 91 318 118T357 194Q362 210 367 231T375 274T381 316T383 353ZM487 557L400 636L291 557H229L377 725H440L550 557H487Z"  />
<glyph unicode="&#xE3;" horiz-adv-x="621" d="M503 0H324L335 53Q300 32 277 19T236 0T203 -9T168 -12Q104 -12 68 39T31 182Q31 249 52 309T108 414T191 485T291 512Q331 512 357 497T407 444L418 500H597L503 0ZM383 353Q383 379 370 394T336 410Q314 410 293 391T256 339T231 266T221 181Q221 137 234 114T271 91Q296 91 318 118T357 194Q362 210 367 231T375 274T381 316T383 353ZM592 703Q587 685 581 670T567 641Q529 580 454 580Q434 580 418 584T375 603Q358 612 345 615T316 619Q273 619 250 577H195Q209 616 226 643Q246 675 272 689T333 703Q349 703 363 700T402 685Q425 674 439 668T470 662Q496 662 511 671T539 703H592H592Z"  />
<glyph unicode="&#xE4;" horiz-adv-x="621" d="M503 0H324L335 53Q300 32 277 19T236 0T203 -9T168 -12Q104 -12 68 39T31 182Q31 249 52 309T108 414T191 485T291 512Q331 512 357 497T407 444L418 500H597L503 0ZM383 353Q383 379 370 394T336 410Q314 410 293 391T256 339T231 266T221 181Q221 137 234 114T271 91Q296 91 318 118T357 194Q362 210 367 231T375 274T381 316T383 353ZM340 650Q340 619 319 598T267 576Q241 576 224 594T206 638Q206 668 226 689T276 711Q303 711 321 694T340 650ZM559 650Q559 619 538 598T486 576Q460 576 443 594T425 638Q425 668 445 689T495 711Q522 711 540 694T559 650Z"  />
<glyph unicode="&#xE5;" horiz-adv-x="621" d="M503 0H324L335 53Q300 32 277 19T236 0T203 -9T168 -12Q104 -12 68 39T31 182Q31 249 52 309T108 414T191 485T291 512Q331 512 357 497T407 444L418 500H597L503 0ZM383 353Q383 379 370 394T336 410Q314 410 293 391T256 339T231 266T221 181Q221 137 234 114T271 91Q296 91 318 118T357 194Q362 210 367 231T375 274T381 316T383 353ZM502 668Q502 645 493 625T468 590T431 566T386 557Q347 557 321 582T294 644Q294 666 303 687T329 723T366 748T411 758Q449 758 475 732T502 668ZM438 662Q438 679 429 688T402 698Q383 698 371 685T358 653Q358 636 367 626T394 616Q414 616 426 629T438 662Z"  />
<glyph unicode="&#xE6;" horiz-adv-x="870" d="M855 385Q855 342 830 310T755 258Q717 242 666 234T550 224Q550 222 550 219T549 204Q549 155 570 131T633 106Q647 106 659 107T685 113T718 126T761 147L798 67Q752 44 717 29T652 4T597 -8T542 -12Q429 -12 386 87Q329 36 276 12T165 -12Q104 -12 68 39T31 180Q31 248 52 308T108 414T191 485T291 512Q377 512 409 445L419 500H550L544 469Q579 492 614 502T691 512Q766 512 810 477T855 385ZM713 378Q713 398 699 410T665 423Q624 423 595 385Q571 354 559 299Q568 298 575 298T586 298Q643 298 678 319T713 378ZM386 346Q386 410 338 410Q315 410 294 392T257 342T231 270T221 186Q221 140 233 116T268 91Q297 91 323 124T366 213Q370 228 373 246T380 282T384 317T386 346Z"  />
<glyph unicode="&#xE7;" horiz-adv-x="470" d="M442 389Q401 410 367 410Q337 410 310 395T263 355T231 295T219 223Q219 168 241 137T303 106Q340 106 398 126L430 39Q382 15 333 3T235 -12L202 -74Q212 -72 218 -72T229 -72Q264 -72 284 -90T304 -140Q304 -164 291 -185T256 -222T202 -247T136 -256Q110 -256 88 -253T36 -242L69 -185Q94 -189 105 -190T127 -191Q156 -191 173 -179T191 -148Q191 -136 181 -129T154 -121Q149 -121 142 -121T126 -123Q124 -123 122 -123T118 -124L109 -117L169 -7Q99 10 61 62T23 195Q23 260 49 317T120 418T225 487T352 512Q392 512 424 504T492 476L442 389Z"  />
<glyph unicode="&#xE8;" horiz-adv-x="546" d="M531 382Q531 307 458 263T249 212Q241 211 233 211T217 211V200Q217 155 240 131T305 106Q319 106 332 108T360 114T393 127T438 148L476 68Q434 46 400 31T335 7T278 -7T222 -12Q176 -12 143 0T84 39Q56 68 42 106T27 190Q27 253 53 316T127 423Q174 467 232 489T356 512Q439 512 485 478T531 382ZM388 376Q388 397 375 410T339 423Q294 423 264 385Q239 354 226 299Q269 299 293 301T337 311Q360 320 374 338T388 376ZM411 557L172 651L261 744L478 569L411 557Z"  />
<glyph unicode="&#xE9;" horiz-adv-x="546" d="M531 382Q531 307 458 263T249 212Q241 211 233 211T217 211V200Q217 155 240 131T305 106Q319 106 332 108T360 114T393 127T438 148L476 68Q434 46 400 31T335 7T278 -7T222 -12Q176 -12 143 0T84 39Q56 68 42 106T27 190Q27 253 53 316T127 423Q174 467 232 489T356 512Q439 512 485 478T531 382ZM388 376Q388 397 375 410T339 423Q294 423 264 385Q239 354 226 299Q269 299 293 301T337 311Q360 320 374 338T388 376ZM273 557L203 569L470 729L541 642L273 557Z"  />
<glyph unicode="&#xEA;" horiz-adv-x="546" d="M531 382Q531 307 458 263T249 212Q241 211 233 211T217 211V200Q217 155 240 131T305 106Q319 106 332 108T360 114T393 127T438 148L476 68Q434 46 400 31T335 7T278 -7T222 -12Q176 -12 143 0T84 39Q56 68 42 106T27 190Q27 253 53 316T127 423Q174 467 232 489T356 512Q439 512 485 478T531 382ZM388 376Q388 397 375 410T339 423Q294 423 264 385Q239 354 226 299Q269 299 293 301T337 311Q360 320 374 338T388 376ZM441 557L354 636L245 557H183L331 725H394L504 557H441Z"  />
<glyph unicode="&#xEB;" horiz-adv-x="546" d="M531 382Q531 307 458 263T249 212Q241 211 233 211T217 211V200Q217 155 240 131T305 106Q319 106 332 108T360 114T393 127T438 148L476 68Q434 46 400 31T335 7T278 -7T222 -12Q176 -12 143 0T84 39Q56 68 42 106T27 190Q27 253 53 316T127 423Q174 467 232 489T356 512Q439 512 485 478T531 382ZM388 376Q388 397 375 410T339 423Q294 423 264 385Q239 354 226 299Q269 299 293 301T337 311Q360 320 374 338T388 376ZM314 650Q314 619 293 598T241 576Q215 576 198 594T180 638Q180 668 200 689T250 711Q277 711 295 694T314 650ZM533 650Q533 619 512 598T460 576Q434 576 417 594T399 638Q399 668 419 689T469 711Q496 711 514 694T533 650Z"  />
<glyph unicode="&#xEC;" horiz-adv-x="320" d="M202 0H23L116 500H295L202 0ZM273 557L34 651L123 744L340 569L273 557Z"  />
<glyph unicode="&#xED;" horiz-adv-x="320" d="M202 0H23L116 500H295L202 0ZM137 557L67 569L334 729L405 642L137 557Z"  />
<glyph unicode="&#xEE;" horiz-adv-x="320" d="M202 0H23L116 500H295L202 0ZM312 557L225 636L116 557H54L202 725H265L375 557H312Z"  />
<glyph unicode="&#xEF;" horiz-adv-x="320" d="M202 0H23L116 500H295L202 0ZM209 650Q209 619 188 598T136 576Q110 576 93 594T75 638Q75 668 95 689T145 711Q172 711 190 694T209 650ZM428 650Q428 619 407 598T355 576Q329 576 312 594T294 638Q294 668 314 689T364 711Q391 711 409 694T428 650Z"  />
<glyph unicode="&#xF0;" horiz-adv-x="603" d="M584 339Q584 267 562 206T497 96Q451 43 388 13T249 -17Q198 -17 156 -2T83 42T37 109T20 197Q20 235 29 272T55 342T96 404T150 454Q171 469 197 482T245 500Q252 502 264 504T289 508T313 511T329 513Q331 513 334 513T342 512Q333 526 326 536T311 555T295 570T276 586L142 508L117 561L222 619Q215 623 207 627T188 635Q171 642 152 647T112 657L146 716Q197 708 243 697T314 674L459 759L483 705L380 646Q471 594 520 533Q553 491 568 444T584 339ZM403 328Q403 407 336 407Q269 407 231 333Q216 303 208 269T199 199Q199 150 217 128T276 106Q311 106 338 130T381 199Q392 228 397 263T403 328Z"  />
<glyph unicode="&#xF1;" horiz-adv-x="621" d="M582 416Q582 401 579 377T570 322L511 0H331L385 292Q388 310 390 324T393 344Q393 364 382 376T353 389Q310 389 279 335Q267 314 259 286T240 206L201 0H22L116 500H295L276 402Q359 512 473 512Q524 512 553 487T582 416ZM572 703Q567 685 561 670T547 641Q509 580 434 580Q414 580 398 584T355 603Q338 612 325 615T296 619Q253 619 230 577H175Q189 616 206 643Q226 675 252 689T313 703Q329 703 343 700T382 685Q405 674 419 668T450 662Q476 662 491 671T519 703H572H572Z"  />
<glyph unicode="&#xF2;" horiz-adv-x="603" d="M571 276Q571 216 547 164T482 72T385 11T265 -12Q214 -12 171 6T96 55T46 130T28 224Q28 283 53 335T120 427T219 489T340 512Q390 512 432 495T505 446T553 371T571 276ZM382 318Q382 424 326 424Q305 424 286 406T251 357T228 286T219 202Q219 140 233 108T277 76Q320 76 347 129Q354 144 360 166T372 213T379 266T382 318ZM397 557L158 651L247 744L464 569L397 557Z"  />
<glyph unicode="&#xF3;" horiz-adv-x="603" d="M571 276Q571 216 547 164T482 72T385 11T265 -12Q214 -12 171 6T96 55T46 130T28 224Q28 283 53 335T120 427T219 489T340 512Q390 512 432 495T505 446T553 371T571 276ZM382 318Q382 424 326 424Q305 424 286 406T251 357T228 286T219 202Q219 140 233 108T277 76Q320 76 347 129Q354 144 360 166T372 213T379 266T382 318ZM247 557L177 569L444 729L515 642L247 557Z"  />
<glyph unicode="&#xF4;" horiz-adv-x="603" d="M571 276Q571 216 547 164T482 72T385 11T265 -12Q214 -12 171 6T96 55T46 130T28 224Q28 283 53 335T120 427T219 489T340 512Q390 512 432 495T505 446T553 371T571 276ZM382 318Q382 424 326 424Q305 424 286 406T251 357T228 286T219 202Q219 140 233 108T277 76Q320 76 347 129Q354 144 360 166T372 213T379 266T382 318ZM440 557L353 636L244 557H182L330 725H393L503 557H440Z"  />
<glyph unicode="&#xF5;" horiz-adv-x="603" d="M571 276Q571 216 547 164T482 72T385 11T265 -12Q214 -12 171 6T96 55T46 130T28 224Q28 283 53 335T120 427T219 489T340 512Q390 512 432 495T505 446T553 371T571 276ZM382 318Q382 424 326 424Q305 424 286 406T251 357T228 286T219 202Q219 140 233 108T277 76Q320 76 347 129Q354 144 360 166T372 213T379 266T382 318ZM537 703Q532 685 526 670T512 641Q474 580 399 580Q379 580 363 584T320 603Q303 612 290 615T261 619Q218 619 195 577H140Q154 616 171 643Q191 675 217 689T278 703Q294 703 308 700T347 685Q370 674 384 668T415 662Q441 662 456 671T484 703H537H537Z"  />
<glyph unicode="&#xF6;" horiz-adv-x="603" d="M571 276Q571 216 547 164T482 72T385 11T265 -12Q214 -12 171 6T96 55T46 130T28 224Q28 283 53 335T120 427T219 489T340 512Q390 512 432 495T505 446T553 371T571 276ZM382 318Q382 424 326 424Q305 424 286 406T251 357T228 286T219 202Q219 140 233 108T277 76Q320 76 347 129Q354 144 360 166T372 213T379 266T382 318ZM311 650Q311 619 290 598T238 576Q212 576 195 594T177 638Q177 668 197 689T247 711Q274 711 292 694T311 650ZM530 650Q530 619 509 598T457 576Q431 576 414 594T396 638Q396 668 416 689T466 711Q493 711 511 694T530 650Z"  />
<glyph unicode="&#xF7;" horiz-adv-x="621" d="M411 452Q411 415 386 390T323 365Q287 365 262 390T236 452Q236 489 261 514T324 539Q360 539 385 514T411 452ZM72 201V304H579V201H72ZM412 55Q412 18 387 -8T324 -34Q287 -34 262 -8T236 55Q236 93 262 117T325 142Q361 142 386 117T412 55Z"  />
<glyph unicode="&#xF8;" horiz-adv-x="603" d="M532 414Q553 376 562 344T572 276Q572 216 548 164T483 72T385 11T264 -12Q214 -12 175 3T100 53L8 -25L-31 20L63 99Q44 135 36 162T28 223Q28 282 53 334T120 426T219 489T339 512Q387 512 424 500T493 459L584 533L620 486L532 414ZM383 376Q374 404 362 415T329 427Q286 427 255 372Q239 344 229 306T214 219L383 376ZM218 143Q224 106 238 90T279 73Q302 73 321 89T355 136T379 208T390 302L218 143Z"  />
<glyph unicode="&#xF9;" horiz-adv-x="621" d="M503 0H324L343 99Q261 -12 146 -12Q95 -12 67 13T38 84Q38 98 41 126T49 179L109 500H288L234 209Q231 194 230 186T228 173T227 164T226 156Q226 136 237 124T265 112Q285 112 305 126T340 166Q352 187 360 215T379 295L417 500H596L503 0ZM402 557L163 651L252 744L469 569L402 557Z"  />
<glyph unicode="&#xFA;" horiz-adv-x="621" d="M503 0H324L343 99Q261 -12 146 -12Q95 -12 67 13T38 84Q38 98 41 126T49 179L109 500H288L234 209Q231 194 230 186T228 173T227 164T226 156Q226 136 237 124T265 112Q285 112 305 126T340 166Q352 187 360 215T379 295L417 500H596L503 0ZM279 557L209 569L476 729L547 642L279 557Z"  />
<glyph unicode="&#xFB;" horiz-adv-x="621" d="M503 0H324L343 99Q261 -12 146 -12Q95 -12 67 13T38 84Q38 98 41 126T49 179L109 500H288L234 209Q231 194 230 186T228 173T227 164T226 156Q226 136 237 124T265 112Q285 112 305 126T340 166Q352 187 360 215T379 295L417 500H596L503 0ZM463 557L376 636L267 557H205L353 725H416L526 557H463Z"  />
<glyph unicode="&#xFC;" horiz-adv-x="621" d="M503 0H324L343 99Q261 -12 146 -12Q95 -12 67 13T38 84Q38 98 41 126T49 179L109 500H288L234 209Q231 194 230 186T228 173T227 164T226 156Q226 136 237 124T265 112Q285 112 305 126T340 166Q352 187 360 215T379 295L417 500H596L503 0ZM335 650Q335 619 314 598T262 576Q236 576 219 594T201 638Q201 668 221 689T271 711Q298 711 316 694T335 650ZM554 650Q554 619 533 598T481 576Q455 576 438 594T420 638Q420 668 440 689T490 711Q517 711 535 694T554 650Z"  />
<glyph unicode="&#xFD;" horiz-adv-x="489" d="M75 -250L-53 -191L108 57L49 489L235 512Q237 452 238 403T239 298Q239 283 239 271T239 246T239 219T237 184Q251 215 272 259T316 349T363 438T405 512L540 489L75 -250ZM251 557L181 569L448 729L519 642L251 557Z"  />
<glyph unicode="&#xFE;" horiz-adv-x="621" d="M585 315Q585 159 485 59Q450 24 412 6T334 -12Q262 -12 210 42L156 -250H-23L159 735H339L285 443Q333 481 369 497T444 513Q513 513 549 463T585 315ZM399 308Q399 359 387 382T349 405Q325 405 302 381T262 314Q246 276 237 229T227 131Q236 109 253 97T290 85Q312 85 331 103T366 152T390 223T399 308Z"  />
<glyph unicode="&#xFF;" horiz-adv-x="489" d="M75 -250L-53 -191L108 57L49 489L235 512Q237 452 238 403T239 298Q239 283 239 271T239 246T239 219T237 184Q251 215 272 259T316 349T363 438T405 512L540 489L75 -250ZM276 650Q276 619 255 598T203 576Q177 576 160 594T142 638Q142 668 162 689T212 711Q239 711 257 694T276 650ZM495 650Q495 619 474 598T422 576Q396 576 379 594T361 638Q361 668 381 689T431 711Q458 711 476 694T495 650Z"  />
<glyph unicode="&#x131;" horiz-adv-x="320" d="M202 0H23L116 500H295L202 0Z"  />
<glyph unicode="&#x152;" horiz-adv-x="917" d="M917 581H717L688 425H883L861 306H665L631 119H869L847 0H420L392 -4Q363 -8 340 -10T303 -12Q259 -12 215 6T136 59Q91 103 68 163T45 296Q45 385 80 468T176 611Q228 661 293 686T436 712Q463 712 486 710T549 700H939L917 581ZM521 542Q505 549 493 554T471 562T450 566T428 567Q382 567 344 545T282 481Q273 465 265 443T251 397T242 348T238 298Q238 227 259 187Q286 133 347 133Q404 133 451 165L521 542Z"  />
<glyph unicode="&#x153;" horiz-adv-x="882" d="M867 385Q867 337 834 302T733 248Q701 239 662 233T557 224Q556 218 556 213T556 204Q556 107 642 107Q677 107 708 119T771 148L810 68Q731 26 669 7T551 -12Q509 -12 477 1T426 40Q405 25 387 15T350 -1T310 -9T264 -12Q210 -12 166 4T92 51T45 124T28 220Q28 294 58 354T145 453Q186 481 239 496T345 512Q395 512 432 500T508 455Q550 484 596 498T693 512Q774 512 820 479T867 385ZM722 380Q722 399 709 411T674 424Q634 424 607 392T568 299H592Q659 299 690 320T722 380ZM379 323Q379 377 368 400T331 423Q308 423 287 404T251 352T226 276T217 183Q217 132 231 104T272 76Q295 76 314 95T348 147T371 226T379 323Z"  />
<glyph unicode="&#x160;" horiz-adv-x="489" d="M443 562Q407 589 372 589Q335 589 313 571T291 523Q291 511 294 500T308 471T337 428T388 359Q407 333 421 308Q435 281 441 255T448 200Q448 153 429 114T376 47T295 4T191 -12Q129 -12 77 5T-14 56L60 163Q78 148 92 139T117 125T140 117T164 115Q204 115 229 139T254 202Q254 214 252 224T243 248T224 280T191 326Q176 346 165 363T144 394Q118 434 110 460T101 517Q101 559 119 594T170 656T247 697T343 712Q432 712 514 662L443 562ZM371 757H307L197 925H259L347 847L457 925H518L371 757Z"  />
<glyph unicode="&#x161;" horiz-adv-x="413" d="M358 390Q326 410 295 410Q271 410 258 398T245 366Q245 353 251 340T275 306Q305 269 323 244T351 201T364 167T368 135Q368 102 353 75T309 29T240 -1T150 -12Q102 -12 62 -4T-17 23L24 128Q80 91 127 91Q153 91 168 103T184 136Q184 145 182 154T173 174T157 198T131 231Q95 274 81 303T67 364Q67 395 81 422T121 469T181 500T257 512Q302 512 338 502T411 469L358 390ZM276 557H212L102 725H164L252 647L362 725H423L276 557Z"  />
<glyph unicode="&#x178;" horiz-adv-x="565" d="M369 272L318 0H130L180 272L85 680L281 709Q290 642 296 600T305 524T311 460T317 384Q339 428 362 472T408 559T452 639T494 709L653 692L369 272ZM351 850Q351 819 330 798T278 776Q252 776 235 794T217 838Q217 868 237 889T287 911Q314 911 332 894T351 850ZM570 850Q570 819 549 798T497 776Q471 776 454 794T436 838Q436 868 456 889T506 911Q533 911 551 894T570 850Z"  />
<glyph unicode="&#x17D;" horiz-adv-x="564" d="M611 630L227 119H531L510 0H-25L-12 71L379 581H150L171 700H625L611 630ZM430 757H366L256 925H318L406 847L516 925H577L430 757Z"  />
<glyph unicode="&#x17E;" horiz-adv-x="451" d="M464 437L203 114H416L395 0H-37L-26 53L254 392H80L101 500H476L464 437ZM314 557H250L140 725H202L290 647L400 725H461L314 557Z"  />
<glyph unicode="&#x192;" horiz-adv-x="621" d="M611 621Q578 636 549 636Q503 636 475 603Q470 598 468 593T462 582T456 564T447 536L428 476H552L529 397H407L299 36Q288 -2 278 -29T255 -77T229 -115T197 -148Q119 -217 16 -217Q0 -217 -14 -216T-43 -211T-76 -203T-118 -189L-66 -98Q-46 -105 -34 -107T-9 -110Q46 -110 78 -56Q82 -49 85 -43T93 -24T104 9T122 67L221 397H124L147 476H242L261 542Q275 591 300 624T364 683Q402 708 446 721T536 735Q568 735 598 730T662 713L611 621Z"  />
<glyph unicode="&#x2C6;" horiz-adv-x="502" d="M398 557L311 636L202 557H140L288 725H351L461 557H398Z"  />
<glyph unicode="&#x2C7;" horiz-adv-x="487" d="M314 557H250L140 725H202L290 647L400 725H461L314 557Z"  />
<glyph unicode="&#x2DA;" horiz-adv-x="505" d="M416 668Q416 645 407 625T382 590T345 566T300 557Q261 557 235 582T208 644Q208 666 217 687T243 723T280 748T325 758Q363 758 389 732T416 668ZM352 662Q352 679 343 688T316 698Q297 698 285 685T272 653Q272 636 281 626T308 616Q328 616 340 629T352 662Z"  />
<glyph unicode="&#x2DC;" horiz-adv-x="503" d="M506 703Q501 685 495 670T481 641Q443 580 368 580Q348 580 332 584T289 603Q272 612 259 615T230 619Q187 619 164 577H109Q123 616 140 643Q160 675 186 689T247 703Q263 703 277 700T316 685Q339 674 353 668T384 662Q410 662 425 671T453 703H506H506Z"  />
<glyph unicode="&#x2013;" horiz-adv-x="621" d="M577 206H44L61 302H594L577 206Z"  />
<glyph unicode="&#x2014;" horiz-adv-x="941" d="M902 206H37L55 302H920L902 206Z"  />
<glyph unicode="&#x2018;" horiz-adv-x="301" d="M247 555Q250 540 254 524T258 485Q258 453 234 432T170 411Q150 411 135 418T110 437T94 463T88 491Q88 517 101 542T133 586L285 735L345 688L247 555Z"  />
<glyph unicode="&#x2019;" horiz-adv-x="301" d="M330 659Q330 633 318 607T285 560L132 411L73 458L171 591Q168 606 164 622T160 661Q160 692 185 713T248 735Q282 735 303 719Q330 698 330 659Z"  />
<glyph unicode="&#x201A;" horiz-adv-x="301" d="M209 79Q209 53 198 27T164 -20L12 -169L-48 -122L50 11Q47 26 43 42T39 81Q39 112 64 133T127 155Q161 155 182 139Q209 118 209 79Z"  />
<glyph unicode="&#x201C;" horiz-adv-x="535" d="M480 555Q483 540 487 524T491 485Q491 453 467 432T403 411Q383 411 368 418T343 437T327 463T321 491Q321 517 334 542T366 586L518 735L578 688L480 555ZM249 555Q251 540 255 524T259 485Q259 453 235 432T172 411Q152 411 137 418T111 437T95 463T89 491Q89 517 102 542T134 586L287 735L346 688L249 555Z"  />
<glyph unicode="&#x201D;" horiz-adv-x="535" d="M564 659Q564 633 553 607T519 560L367 411L307 458L405 591Q402 606 398 622T394 661Q394 692 419 713T482 735Q516 735 537 719Q564 698 564 659ZM330 659Q330 633 319 607T285 560L133 411L73 458L171 591Q168 606 164 622T160 661Q160 692 185 713T248 735Q282 735 303 719Q330 698 330 659Z"  />
<glyph unicode="&#x201E;" horiz-adv-x="535" d="M442 79Q442 53 430 27T397 -20L244 -169L185 -122L283 11Q280 26 276 42T272 81Q272 112 297 133T360 155Q394 155 415 139Q442 118 442 79ZM212 79Q212 53 201 27T167 -20L14 -169L-45 -122L53 11Q50 26 46 42T42 81Q42 112 67 133T130 155Q164 155 185 139Q212 118 212 79Z"  />
<glyph unicode="&#x2020;" horiz-adv-x="621" d="M567 394H492L381 425L398 265L269 -182H194L231 265L307 425L184 394H110L136 535H211L321 503L299 607L318 712H475L456 607L396 503L519 535H593L567 394Z"  />
<glyph unicode="&#x2021;" horiz-adv-x="621" d="M567 394H492L381 425L398 264L321 104L444 135H519L492 -6H418L307 25L329 -78L310 -182H154L172 -78L233 25L110 -6H36L62 135H136L247 104L231 264L307 425L184 394H110L136 535H211L321 503L299 607L319 712H475L457 607L396 503L519 535H593L567 394Z"  />
<glyph unicode="&#x2022;" horiz-adv-x="500" d="M411 356Q411 326 400 300T369 254T323 223T266 211Q236 211 210 222T163 253T132 299T120 356Q120 386 131 412T163 458T210 489T268 501Q297 501 323 490T368 458T399 412T411 356Z"  />
<glyph unicode="&#x2026;" horiz-adv-x="904" d="M809 86Q809 66 802 49T781 20T751 0T715 -8Q681 -8 659 14T636 71Q636 90 643 107T662 137T691 157T726 165Q761 165 785 142T809 86ZM507 86Q507 66 500 49T479 20T449 0T413 -8Q379 -8 357 14T334 71Q334 90 341 107T360 137T389 157T424 165Q459 165 483 142T507 86ZM205 86Q205 66 198 49T178 20T148 0T112 -8Q78 -8 56 14T33 71Q33 90 40 107T59 137T88 157T123 165Q158 165 181 142T205 86Z"  />
<glyph unicode="&#x2030;" horiz-adv-x="1375" d="M1366 245Q1366 193 1349 148T1301 68T1231 13T1144 -7Q1067 -7 1024 43T980 181Q980 233 997 277T1046 355T1118 407T1207 426Q1280 426 1323 377T1366 245ZM938 245Q938 193 921 148T873 68T803 13T716 -7Q640 -7 597 43T553 181Q553 246 579 299T651 385Q678 405 710 415T779 426Q852 426 895 377T938 245ZM313 0H223L681 700H772L313 0ZM443 525Q443 473 426 428T378 348T308 293T222 273Q146 273 103 323T59 461Q59 526 86 579T158 665Q185 685 217 695T285 706Q358 706 400 657T443 525ZM1227 256Q1227 297 1218 319T1191 341Q1178 341 1165 325T1142 284T1126 227T1119 163Q1119 127 1129 103T1153 79Q1167 79 1180 94T1203 134T1220 191T1227 256ZM798 256Q798 297 789 319T763 341Q750 341 737 325T714 284T698 227T692 163Q692 127 701 103T726 79Q740 79 753 94T776 133T792 190T798 256ZM304 536Q304 576 295 598T269 620Q256 620 243 604T220 563T204 506T197 442Q197 406 207 383T232 359Q246 359 259 374T282 414T298 471T304 536Z"  />
<glyph unicode="&#x2039;" horiz-adv-x="357" d="M187 235L261 87L187 54L43 232L240 415L304 388L187 235Z"  />
<glyph unicode="&#x203A;" horiz-adv-x="357" d="M90 54L26 82L143 234L70 382L143 415L288 238L90 54Z"  />
<glyph unicode="&#x20AC;" horiz-adv-x="621" d="M624 555Q601 569 574 575T527 581Q467 581 427 551T364 467H550L531 384H340Q335 355 334 329H518L500 246H335Q339 220 348 197T373 157T412 129T468 119Q491 119 513 123T546 132L571 13Q535 1 505 -5T430 -12Q367 -12 318 8T234 64T179 146T152 246H37L57 329H152Q153 343 154 356T157 384H69L88 467H176Q195 524 229 569T308 646T407 695T521 712Q572 712 611 697T685 656L624 555Z"  />
<glyph unicode="&#x2122;" horiz-adv-x="523" d="M495 500V601V625Q495 633 496 642Q493 634 490 626Q488 619 486 612T481 600L441 500H408L368 600Q365 608 363 615T358 628Q355 635 354 642V601V500H306V700H378L427 570L474 700H543V500H495ZM211 659V500H162V659H98V700H276V659H211Z"  />

</font>
</defs>
</svg>
